<?xml version="1.0" encoding="UTF-8" standalone="no"?>
<svg
   version="1.0"
   width="3234.075pt"
   height="900.90845pt"
   viewBox="0 0 3234.075 900.90845"
   preserveAspectRatio="xMidYMid"
   id="svg35"
   sodipodi:docname="tinywow_QHH Logo (With text) BLACK_85936056.svg"
   inkscape:version="1.4.2 (ebf0e940d0, 2025-05-08)"
   inkscape:export-filename="../Documents/Qhh/Qhh_Logo_Black.svg"
   inkscape:export-xdpi="96"
   inkscape:export-ydpi="96"
   xmlns:inkscape="http://www.inkscape.org/namespaces/inkscape"
   xmlns:sodipodi="http://sodipodi.sourceforge.net/DTD/sodipodi-0.dtd"
   xmlns="http://www.w3.org/2000/svg"
   xmlns:svg="http://www.w3.org/2000/svg">
  <defs
     id="defs35" />
  <sodipodi:namedview
     id="namedview35"
     pagecolor="#ffffff"
     bordercolor="#000000"
     borderopacity="0.25"
     inkscape:showpageshadow="2"
     inkscape:pageopacity="0.0"
     inkscape:pagecheckerboard="0"
     inkscape:deskcolor="#d1d1d1"
     inkscape:document-units="pt"
     inkscape:zoom="0.3249538"
     inkscape:cx="1523.2935"
     inkscape:cy="684.71272"
     inkscape:window-width="1916"
     inkscape:window-height="1020"
     inkscape:window-x="0"
     inkscape:window-y="0"
     inkscape:window-maximized="0"
     inkscape:current-layer="g35">
    <inkscape:page
       x="0"
       y="0"
       width="3234.075"
       height="900.90845"
       id="page2"
       margin="0"
       bleed="0" />
  </sodipodi:namedview>
  <metadata
     id="metadata1">
Created by potrace 1.16, written by Peter Selinger 2001-2019
</metadata>
  <g
     transform="matrix(0.1,0,0,-0.1,0.075,1197.9084)"
     fill="#000000"
     stroke="none"
     id="g35">
    <path
       d="m 9066,11965 c -59,-21 -108,-65 -138,-125 l -28,-54 V 7476 c 0,-4176 1,-4312 19,-4352 10,-22 35,-57 56,-77 72,-70 44,-68 786,-65 l 666,3 49,30 c 30,19 60,49 79,79 l 30,49 6,1516 c 6,1648 2,1543 60,1712 90,263 281,446 533,509 76,19 115,20 1091,20 976,0 1015,-1 1091,-20 320,-80 534,-348 584,-730 5,-44 10,-501 10,-1108 V 4008 l 29,-29 c 22,-22 39,-29 68,-29 37,0 57,19 781,743 668,667 746,749 775,807 l 32,65 3,3110 2,3111 -27,55 c -32,61 -93,113 -153,129 -26,7 -255,10 -687,8 -647,-3 -648,-3 -689,-25 -53,-28 -107,-91 -122,-142 -9,-28 -12,-350 -12,-1212 0,-740 -4,-1207 -10,-1264 -15,-123 -34,-196 -80,-290 -105,-218 -318,-366 -603,-420 -118,-22 -1866,-22 -1984,0 -285,54 -495,200 -602,420 -47,95 -67,170 -81,296 -6,56 -10,567 -10,1270 0,1294 4,1210 -62,1284 -17,20 -50,46 -72,58 -41,22 -43,22 -696,24 -539,2 -662,0 -694,-12 z"
       id="path1" />
    <path
       d="m 23455,11966 c -39,-18 -80,-62 -99,-108 -14,-34 -16,-477 -16,-4383 0,-3900 2,-4349 15,-4383 21,-49 52,-81 100,-103 39,-18 182,-19 4389,-19 h 4350 l 44,21 c 64,32 102,95 102,171 0,32 -6,73 -14,91 -16,39 -8641,8683 -8689,8709 -39,21 -139,23 -182,4 z"
       id="path2" />
    <path
       d="M 3920,11963 C 3238,11912 2556,11675 1978,11288 917,10579 203,9402 36,8085 -13,7697 -13,7254 36,6860 277,4927 1685,3369 3490,3036 c 271,-50 402,-61 735,-60 266,0 334,3 480,23 293,39 537,95 795,183 189,64 423,164 462,196 64,54 85,151 49,227 -13,27 -183,204 -522,542 -582,578 -555,557 -714,558 -55,0 -156,-8 -223,-18 -141,-19 -418,-23 -552,-7 -822,100 -1460,633 -1798,1500 -260,669 -298,1551 -98,2281 136,496 393,946 712,1249 311,294 694,479 1129,546 151,23 450,23 609,0 1081,-156 1796,-1097 1897,-2496 15,-203 7,-643 -16,-860 -22,-215 -74,-524 -101,-599 -3,-10 -115,95 -327,306 -177,176 -338,328 -357,338 -50,26 -147,31 -206,11 -44,-14 -97,-64 -511,-478 -318,-318 -467,-475 -478,-500 -23,-58 -19,-153 9,-213 34,-72 2678,-2714 2746,-2744 66,-30 162,-28 226,4 70,35 924,890 953,955 28,61 28,159 0,220 -15,33 -109,134 -356,381 l -335,337 86,142 c 689,1147 844,2612 415,3913 -286,867 -830,1635 -1537,2170 -367,279 -746,479 -1177,622 -441,147 -818,207 -1284,203 -130,-1 -256,-3 -281,-5 z"
       id="path3" />
    <path
       d="m 16241,11944 c -56,-28 -101,-80 -123,-142 -11,-30 -13,-556 -13,-2794 V 6252 l 24,-26 c 31,-33 80,-42 117,-23 35,19 2267,2252 2284,2286 16,31 5,83 -23,108 -12,11 -51,27 -87,37 -276,74 -476,240 -561,465 -55,147 -53,85 -59,1441 l -5,1255 -22,41 c -28,53 -91,107 -142,122 -27,9 -224,12 -688,12 h -649 z"
       id="path4" />
    <path
       d="m 21275,11956 c -41,-18 -92,-77 -104,-123 -14,-51 -15,-598 -1,-624 7,-13 21,-19 43,-19 29,0 67,34 385,353 193,194 352,358 352,363 0,6 -9,23 -21,38 l -20,26 h -302 c -227,-1 -310,-4 -332,-14 z"
       id="path5" />
    <path
       d="m 22583,11954 c -40,-20 -1275,-1296 -1325,-1370 -46,-67 -75,-146 -88,-232 -5,-37 -10,-284 -10,-549 0,-373 -3,-498 -14,-555 -61,-318 -263,-523 -605,-616 l -96,-26 -565,-6 c -613,-7 -592,-5 -715,-68 -65,-33 -170,-135 -1516,-1481 -1423,-1422 -1448,-1447 -1482,-1521 -20,-41 -41,-95 -48,-120 -17,-62 -25,-2207 -9,-2287 14,-63 49,-109 105,-134 38,-17 82,-19 739,-19 693,0 700,0 744,21 26,13 54,38 70,62 l 27,41 5,1565 5,1566 23,80 c 31,112 101,249 162,318 98,109 259,202 430,249 l 85,23 h 1000 1000 l 79,-23 c 236,-68 418,-235 506,-462 69,-181 64,-41 70,-1755 5,-1439 6,-1552 22,-1581 23,-42 71,-81 116,-94 25,-8 258,-10 738,-8 l 700,3 41,27 c 24,16 49,44 62,70 l 21,44 v 4354 4354 l -21,44 c -31,63 -95,102 -168,102 -31,0 -70,-8 -88,-16 z"
       id="path6" />
    <path
       d="m 26565,9991 c -22,-10 -48,-27 -57,-37 -46,-52 -62,-157 -33,-217 9,-18 993,-1012 2188,-2209 2163,-2168 2172,-2177 2223,-2188 89,-20 179,19 218,95 l 21,40 v 2190 c 0,1205 -3,2202 -7,2217 -12,40 -57,89 -103,109 -38,18 -127,19 -2225,19 -2099,0 -2187,-1 -2225,-19 z"
       id="path7" />
    <path
       d="m 15495,4801 c -16,-10 -366,-356 -777,-767 -521,-522 -752,-760 -763,-786 -33,-82 -8,-182 61,-234 l 37,-29 721,-3 c 397,-1 731,0 743,3 35,8 94,66 114,110 17,38 19,88 19,853 v 814 l -29,29 c -35,35 -81,38 -126,10 z"
       id="path8" />
  </g>
</svg>
